<svg width="24" height="24" viewBox="0 0 24 24" fill="none" xmlns="http://www.w3.org/2000/svg">
<path d="M16.7039 11.108C16.5419 8.121 14.9099 6.411 12.1699 6.394C10.5179 6.384 9.13687 7.084 8.29087 8.367L9.79887 9.4C10.4329 8.439 11.4339 8.24 12.1589 8.247C13.0619 8.253 13.7419 8.515 14.1829 9.027C14.5029 9.399 14.7179 9.914 14.8249 10.563C14.0235 10.427 13.1602 10.3853 12.2349 10.438C9.62887 10.588 7.95487 12.108 8.06687 14.219C8.12387 15.29 8.65687 16.212 9.56887 16.814C10.3389 17.323 11.3329 17.571 12.3639 17.515C13.7269 17.44 14.7959 16.921 15.5419 15.97C16.1079 15.248 16.4659 14.312 16.6239 13.134C17.2739 13.526 17.7539 14.041 18.0209 14.661C18.4729 15.715 18.4989 17.447 17.0859 18.859C15.8479 20.095 14.3599 20.631 12.1109 20.647C9.61588 20.629 7.72888 19.828 6.50288 18.269C5.35288 16.809 4.75987 14.699 4.73787 12C4.75987 9.3 5.35388 7.191 6.50288 5.73C7.72888 4.171 9.61588 3.371 12.1109 3.353C14.6239 3.372 16.5429 4.175 17.8169 5.743C18.4419 6.511 18.9119 7.477 19.2229 8.603L20.9889 8.133C20.6119 6.746 20.0199 5.551 19.2149 4.56C17.5819 2.55 15.1819 1.521 12.1049 1.5C9.03387 1.521 6.67287 2.555 5.08587 4.571C3.67487 6.366 2.94588 8.877 2.92188 12.007C2.94588 15.137 3.67487 17.634 5.08587 19.429C6.67287 21.445 9.04587 22.479 12.1159 22.5C14.8469 22.481 16.7709 21.766 18.3559 20.183C20.4309 18.11 20.3679 15.513 19.6849 13.919C19.1599 12.694 18.1149 11.713 16.7049 11.109M12.2669 15.666C11.1249 15.73 9.93887 15.218 9.87987 14.12C9.83687 13.306 10.4599 12.398 12.3369 12.29C13.1852 12.2332 14.0373 12.2917 14.8699 12.464C14.6539 15.166 13.3849 15.604 12.2669 15.666Z" fill="black"/>
</svg>
